# xmcd
#
# Track frame offsets:
#	150
#	11737
#	23775
#	37560
#	61115
#	72612
#	83910
#	95640
#	104752
#	115470
#	126722
#	139030
#	149442
#	161532
#	172512
#	185017
#	195627
#	206405
#	218532
#	228697
#	240567
#	249810
#	260950
#	270285
#	280120
#
# Disc length: 3883 seconds
#
# Revision: 0
# Processed by: cddbd v1.4PL0 Copyright (c) Steve Scherf et al.
# Submitted via: EasyCDDAExtractor 5.0.5.1
#
DISCID=6a0f2919
DTITLE=Dave Bartholomew - The Genius Of Dave Bartholomew (1)
DYEAR=1900
DGENRE=Blues
TTITLE0=Ain't Gonna Do It
TTITLE1=Don't Marry Too Soon
TTITLE2=Shrewsbury Blues
TTITLE3=Stack-A-Lee (Parts 1 and 2)
TTITLE4=The Blues Jumped Over The Rabbit
TTITLE5=Blow Your Top
TTITLE6=3 X 7 =21
TTITLE7=Little Girl Sing Ding A Ling
TTITLE8=I'm Gone
TTITLE9=Bone Walker
TTITLE10=Blue Monday
TTITLE11=I Got Booted
TTITLE12=I-Yi
TTITLE13=Ain't It A Shame
TTITLE14=Thinking About My Baby
TTITLE15=Every Dog Has A Day
TTITLE16=You Ain't So Such A Much
TTITLE17=Bernie Williams
TTITLE18=Single Life
TTITLE19=The Real Thing
TTITLE20=Drops Of Rain
TTITLE21=Joan Scott
TTITLE22=Bone Walker
TTITLE23=Bo Weevil
TTITLE24=Pee Wee Crayton
EXTD=
EXTT0=
EXTT1=
EXTT2=
EXTT3=
EXTT4=
EXTT5=
EXTT6=
EXTT7=
EXTT8=
EXTT9=
EXTT10=
EXTT11=
EXTT12=
EXTT13=
EXTT14=
EXTT15=
EXTT16=
EXTT17=
EXTT18=
EXTT19=
EXTT20=
EXTT21=
EXTT22=
EXTT23=
EXTT24=
PLAYORDER=
